<svg id="Layer_1" data-name="Layer 1" xmlns="http://www.w3.org/2000/svg" xmlns:xlink="http://www.w3.org/1999/xlink" viewBox="0 0 725 242.83"><defs><style>.cls-1{fill:#fff;}.cls-2{fill:url(#linear-gradient);}.cls-3{fill:url(#linear-gradient-2);}.cls-4{fill:url(#linear-gradient-3);}.cls-5{fill:url(#linear-gradient-4);}.cls-6{fill:url(#linear-gradient-5);}.cls-7{fill:url(#linear-gradient-6);}</style><linearGradient id="linear-gradient" x1="173.12" y1="174.25" x2="173.12" y2="23.4" gradientUnits="userSpaceOnUse"><stop offset="0.08" stop-color="#fff" stop-opacity="0.1"/><stop offset="0.82" stop-color="#fff"/></linearGradient><linearGradient id="linear-gradient-2" x1="214.9" y1="174.25" x2="214.9" y2="60.1" xlink:href="#linear-gradient"/><linearGradient id="linear-gradient-3" x1="131.33" y1="174.25" x2="131.33" y2="40.37" xlink:href="#linear-gradient"/><linearGradient id="linear-gradient-4" x1="89.54" y1="174.25" x2="89.54" y2="57.34" xlink:href="#linear-gradient"/><linearGradient id="linear-gradient-5" x1="5.98" y1="174.25" x2="5.98" y2="31.12" xlink:href="#linear-gradient"/><linearGradient id="linear-gradient-6" x1="47.76" y1="174.25" x2="47.76" y2="0" xlink:href="#linear-gradient"/></defs><title>sky_logo_horizontal_white</title><path class="cls-1" d="M106.73,420.73H102V383.45H88v-4.34h32.7v4.34h-14Z" transform="translate(-88 -178.73)"/><path class="cls-1" d="M155.42,383.39H130V397.6h22.71v4.28H130v14.57h25.69v4.28H125.33V379.11h30.09Z" transform="translate(-88 -178.73)"/><path class="cls-1" d="M178.84,421.45c-12,0-20.87-9.45-20.87-21.47s8.8-21.59,21-21.59c7.55,0,12.07,2.68,16.23,6.6L192,388.45c-3.51-3.33-7.43-5.71-13.08-5.71-9.22,0-16.12,7.43-16.12,17.13s7,17.24,16.12,17.24c5.71,0,9.45-2.2,13.44-6l3.09,3C191.15,418.53,186.39,421.45,178.84,421.45Z" transform="translate(-88 -178.73)"/><path class="cls-1" d="M204.22,402v18.73h-4.7V379.11h4.7V397.6h24V379.11h4.7v41.62h-4.7V402Z" transform="translate(-88 -178.73)"/><path class="cls-1" d="M271.16,379.11h4.58v41.62H272L245.12,386.6v34.13h-4.58V379.11h4.4l26.22,33.36Z" transform="translate(-88 -178.73)"/><path class="cls-1" d="M302.66,421.45c-12.66,0-21.17-9.93-21.17-21.47s8.62-21.59,21.29-21.59S324,388.33,324,399.86,315.33,421.45,302.66,421.45Zm0-38.71c-9.51,0-16.29,7.61-16.29,17.13s6.9,17.24,16.41,17.24,16.29-7.61,16.29-17.12S312.18,382.74,302.66,382.74Z" transform="translate(-88 -178.73)"/><path class="cls-1" d="M327.33,379.11H332v37.28h23.43v4.34H327.33Z" transform="translate(-88 -178.73)"/><path class="cls-1" d="M374.53,421.45c-12.66,0-21.17-9.93-21.17-21.47S362,378.4,374.65,378.4s21.17,9.93,21.17,21.47S387.2,421.45,374.53,421.45Zm0-38.71c-9.51,0-16.29,7.61-16.29,17.13s6.9,17.24,16.41,17.24,16.29-7.61,16.29-17.12S384,382.74,374.53,382.74Z" transform="translate(-88 -178.73)"/><path class="cls-1" d="M420.9,421.45c-13.08,0-21.17-9.52-21.17-21.47,0-11.48,8.38-21.59,20.87-21.59,7,0,11.36,2,15.52,5.53l-3,3.57a17.71,17.71,0,0,0-12.66-4.76c-9.22,0-15.82,7.79-15.82,17.13,0,10,6.36,17.36,16.47,17.36a19.6,19.6,0,0,0,12-4.16V402.72H420.43V398.5h17.18v16.59A25.23,25.23,0,0,1,420.9,421.45Z" transform="translate(-88 -178.73)"/><path class="cls-1" d="M461.8,420.73H457V404.26l-17.3-25.15h5.71l14,20.81,14.15-20.81h5.47L461.8,404.2Z" transform="translate(-88 -178.73)"/><path class="cls-1" d="M496.57,421.45A32.27,32.27,0,0,1,486,419.71a25.72,25.72,0,0,1-8.89-5.2l6.42-7.68a21.19,21.19,0,0,0,13.5,5,6.85,6.85,0,0,0,3.54-.74,2.34,2.34,0,0,0,1.22-2.11v-.12a2.25,2.25,0,0,0-.3-1.16,3,3,0,0,0-1.1-1,11.4,11.4,0,0,0-2.14-.92q-1.34-.44-3.48-.92-3.33-.77-6.18-1.69a18.94,18.94,0,0,1-5-2.38,10.13,10.13,0,0,1-4.55-9v-.12a12.81,12.81,0,0,1,1.1-5.34,11.84,11.84,0,0,1,3.21-4.21,15.07,15.07,0,0,1,5.08-2.76,21.39,21.39,0,0,1,6.72-1,30,30,0,0,1,9.54,1.41,24,24,0,0,1,7.58,4.16l-5.77,8.17a23.44,23.44,0,0,0-5.85-3.06,17.67,17.67,0,0,0-5.8-1,5.2,5.2,0,0,0-3.12.77,2.29,2.29,0,0,0-1,1.9v.12a2.34,2.34,0,0,0,.33,1.24,3,3,0,0,0,1.13,1,12.54,12.54,0,0,0,2.2.89q1.4.45,3.54.92a50.68,50.68,0,0,1,6.45,1.81,19.22,19.22,0,0,1,4.91,2.52,10.15,10.15,0,0,1,3.09,3.59,11,11,0,0,1,1.07,5v.12a12.79,12.79,0,0,1-1.22,5.7,12.21,12.21,0,0,1-3.42,4.24,15.46,15.46,0,0,1-5.29,2.67A24.2,24.2,0,0,1,496.57,421.45Z" transform="translate(-88 -178.73)"/><path class="cls-1" d="M537.53,421.57a23.09,23.09,0,0,1-8.92-1.7,22,22,0,0,1-7.08-4.61,21.31,21.31,0,0,1-4.67-6.84,20.93,20.93,0,0,1-1.69-8.38v-.12a21.18,21.18,0,0,1,6.42-15.31,22.35,22.35,0,0,1,7.13-4.64,24.3,24.3,0,0,1,17.83,0,22,22,0,0,1,7.08,4.61,21.31,21.31,0,0,1,4.67,6.84,21,21,0,0,1,1.69,8.38v.12a21.2,21.2,0,0,1-6.42,15.31,22.39,22.39,0,0,1-7.13,4.64A23.11,23.11,0,0,1,537.53,421.57Zm.09-10.4a10.4,10.4,0,0,0,4.35-.89,10,10,0,0,0,3.34-2.41,11.16,11.16,0,0,0,2.15-3.54,11.85,11.85,0,0,0,.78-4.28v-.12a11.88,11.88,0,0,0-.78-4.28,11,11,0,0,0-2.21-3.57,10.85,10.85,0,0,0-3.4-2.47,10.83,10.83,0,0,0-8.67,0,10.39,10.39,0,0,0-5.48,5.94,12.29,12.29,0,0,0-.74,4.28v.12a11.86,11.86,0,0,0,.78,4.28,11.23,11.23,0,0,0,2.18,3.57,10.48,10.48,0,0,0,3.37,2.47A10.12,10.12,0,0,0,537.62,411.16Z" transform="translate(-88 -178.73)"/><path class="cls-1" d="M562.44,379.12H574v31.51h20.15v10.11H562.44Z" transform="translate(-88 -178.73)"/><path class="cls-1" d="M614.21,421.51a26.59,26.59,0,0,1-8-1.13,15.57,15.57,0,0,1-6.07-3.48,15.34,15.34,0,0,1-3.83-5.94,24.29,24.29,0,0,1-1.34-8.47V379.12h11.77v23.13q0,4.52,2.06,6.69a7.29,7.29,0,0,0,5.54,2.17,7.46,7.46,0,0,0,5.55-2.08q2.07-2.08,2.07-6.48V379.12h11.77v23.07a24.42,24.42,0,0,1-1.4,8.71,15.1,15.1,0,0,1-10,9.48A26.92,26.92,0,0,1,614.21,421.51Z" transform="translate(-88 -178.73)"/><path class="cls-1" d="M648.34,389.23H635.85V379.12h36.5v10.11H659.87v31.51H648.34Z" transform="translate(-88 -178.73)"/><path class="cls-1" d="M675.26,379.12h11.59v41.61H675.26Z" transform="translate(-88 -178.73)"/><path class="cls-1" d="M711.82,421.57a23.1,23.1,0,0,1-8.92-1.7,22,22,0,0,1-7.08-4.61,21.31,21.31,0,0,1-4.67-6.84,20.93,20.93,0,0,1-1.69-8.38v-.12a21.19,21.19,0,0,1,6.42-15.31A22.35,22.35,0,0,1,703,380a24.3,24.3,0,0,1,17.84,0,22,22,0,0,1,7.08,4.61,21.31,21.31,0,0,1,4.67,6.84,21,21,0,0,1,1.69,8.38v.12a21.2,21.2,0,0,1-6.42,15.31,22.39,22.39,0,0,1-7.13,4.64A23.1,23.1,0,0,1,711.82,421.57Zm.09-10.4a10.4,10.4,0,0,0,4.35-.89,10,10,0,0,0,3.34-2.41,11.16,11.16,0,0,0,2.15-3.54,11.85,11.85,0,0,0,.78-4.28v-.12a11.88,11.88,0,0,0-.78-4.28,11,11,0,0,0-2.21-3.57,10.86,10.86,0,0,0-3.4-2.47,10.83,10.83,0,0,0-8.67,0,10.39,10.39,0,0,0-5.48,5.94,12.29,12.29,0,0,0-.75,4.28v.12a11.86,11.86,0,0,0,.78,4.28,11.23,11.23,0,0,0,2.17,3.57,10.48,10.48,0,0,0,3.37,2.47A10.12,10.12,0,0,0,711.91,411.16Z" transform="translate(-88 -178.73)"/><path class="cls-1" d="M736.73,379.12h10.78l17.15,22v-22H776v41.61H765.9l-17.81-22.83v22.83H736.73Z" transform="translate(-88 -178.73)"/><path class="cls-1" d="M796.18,421.45a32.27,32.27,0,0,1-10.61-1.73,25.72,25.72,0,0,1-8.89-5.2l6.42-7.68a21.19,21.19,0,0,0,13.5,5,6.85,6.85,0,0,0,3.54-.74,2.34,2.34,0,0,0,1.22-2.11v-.12a2.24,2.24,0,0,0-.3-1.16,3,3,0,0,0-1.1-1,11.4,11.4,0,0,0-2.14-.92q-1.34-.44-3.48-.92-3.33-.77-6.18-1.69a18.94,18.94,0,0,1-5-2.38,10.13,10.13,0,0,1-4.55-9v-.12a12.81,12.81,0,0,1,1.1-5.34,11.84,11.84,0,0,1,3.21-4.21,15.06,15.06,0,0,1,5.08-2.76,21.39,21.39,0,0,1,6.72-1,30,30,0,0,1,9.54,1.41,24,24,0,0,1,7.58,4.16l-5.77,8.17a23.44,23.44,0,0,0-5.85-3.06,17.67,17.67,0,0,0-5.8-1,5.2,5.2,0,0,0-3.12.77,2.29,2.29,0,0,0-1,1.9v.12a2.34,2.34,0,0,0,.33,1.24,3,3,0,0,0,1.13,1,12.56,12.56,0,0,0,2.2.89q1.4.45,3.54.92a50.69,50.69,0,0,1,6.45,1.81,19.22,19.22,0,0,1,4.91,2.52,10.14,10.14,0,0,1,3.09,3.59,11,11,0,0,1,1.07,5v.12a12.8,12.8,0,0,1-1.22,5.7,12.21,12.21,0,0,1-3.42,4.24,15.46,15.46,0,0,1-5.29,2.67A24.19,24.19,0,0,1,796.18,421.45Z" transform="translate(-88 -178.73)"/><path class="cls-1" d="M346.48,348.49V328c6.93,4,12.4,6.28,17.73,6.28,5.63,0,10.47-2.74,10.47-9.67v-.32c0-5.16-1.61-9-11-19.65-13.36-15.14-18.85-22.39-18.85-36.08v-.32c0-18,11.76-29.48,27.38-29.48,7.89,0,12.57,1.13,17.4,3.55v20.45c-6.12-3.54-9.82-5.15-15-5.15-5.48,0-10.15,3.54-10.15,9.67v.32c0,5.31,1.61,7.25,11,18,15.46,17.88,18.85,24.81,18.85,37.69v.33c0,17.72-12.41,29.48-27.87,29.48A45.06,45.06,0,0,1,346.48,348.49Z" transform="translate(-88 -178.73)"/><path class="cls-1" d="M415.28,238.84h19.85v47.66l16.11-47.66h22.44L454.48,287,474,352.69H451.88l-12.36-43.11-4.39,12.52v30.58H415.28Z" transform="translate(-88 -178.73)"/><path class="cls-1" d="M509.23,307.8l-21.14-69h20.5l10.73,42.61,10.89-42.61h20l-21.15,69v44.89H509.23Z" transform="translate(-88 -178.73)"/><path class="cls-1" d="M571.53,238.84h19.84v95h21v18.87H571.53Z" transform="translate(-88 -178.73)"/><path class="cls-1" d="M633.41,238.84h19.84V352.69H633.41Z" transform="translate(-88 -178.73)"/><path class="cls-1" d="M684.33,238.84h18.55l20,57.58V238.84h19.35V352.69H724.67l-21-60.35v60.35H684.33Z" transform="translate(-88 -178.73)"/><path class="cls-1" d="M767.45,238.84H811V257.7H787.3V286h21v18.86h-21v29h24.22v18.87H767.45Z" transform="translate(-88 -178.73)"/><polygon class="cls-2" points="170.02 25.91 170.02 174.25 176.22 174.25 176.22 23.4 170.02 25.91"/><polygon class="cls-3" points="211.8 60.1 211.8 174.25 218 174.25 218 68.9 211.8 60.1"/><polygon class="cls-4" points="128.23 42.89 128.23 174.25 134.43 174.25 134.43 40.37 128.23 42.89"/><polygon class="cls-5" points="86.44 59.85 86.44 174.25 92.64 174.25 92.64 57.34 86.44 59.85"/><polygon class="cls-6" points="2.88 35.74 2.88 174.25 9.07 174.25 9.07 31.12 2.88 35.74"/><polygon class="cls-7" points="44.66 4.62 44.66 174.25 50.86 174.25 50.86 0 44.66 4.62"/></svg>